<svg xmlns="http://www.w3.org/2000/svg" width="24" height="24" viewBox="0 0 24 24"><g transform="translate(-96 -531)"><path d="M0,0H24V24H0Z" transform="translate(96 531)" fill="none" opacity="0.58"/><path d="M0,5.3V0" transform="translate(104.3 541.7)" fill="none" stroke="#17191c" stroke-linecap="round" stroke-linejoin="round" stroke-width="1.5"/><path d="M0,5.3V0" transform="translate(107.3 541.7)" fill="none" stroke="#17191c" stroke-linecap="round" stroke-linejoin="round" stroke-width="1.5"/><path d="M0,4V0" transform="translate(112.17 543)" fill="none" stroke="#17191c" stroke-linecap="round" stroke-linejoin="round" stroke-width="1.5"/><path d="M.682,4a3.81,3.81,0,0,1-1.5-2.57A3.072,3.072,0,0,1,.377-.857" transform="translate(111.3 542.583) rotate(90)" fill="none" stroke="#17191c" stroke-linecap="round" stroke-linejoin="round" stroke-width="1.5"/><path d="M13,20H7c-5,0-7-2-7-7V7C0,2,2,0,7,0h6c5,0,7,2,7,7v6C20,18,18,20,13,20Z" transform="translate(98 533)" fill="none" stroke="#17191c" stroke-linecap="round" stroke-linejoin="round" stroke-width="1.5"/><path d="M0,0H0" transform="translate(104.34 539.034) rotate(-90)" fill="none" stroke="#17191c" stroke-linecap="round" stroke-linejoin="round" stroke-width="2"/><path d="M0,0H24V24H0Z" transform="translate(96 531)" fill="none" opacity="0"/></g></svg>